<svg width="247" height="189" viewBox="0 0 247 189" fill="none" xmlns="http://www.w3.org/2000/svg">
<g filter="url(#filter0_d_684_4904)">
<path d="M83.9277 104.31C85.7427 101.172 87.5105 98.0126 89.3935 94.9162C89.9793 93.9538 90.3924 92.4631 92.0139 92.8659C93.5777 93.2529 93.3215 94.7279 93.4993 95.8786C93.7922 97.7563 93.5307 99.6967 94.1949 101.548C95.4921 105.178 98.1177 106.229 101.313 104.059C103.955 102.265 106.366 100.277 107.119 96.7468C107.768 93.687 110.032 91.6681 112.972 90.5645C114.07 90.1513 115.268 89.9944 115.76 91.4851C116.189 92.7874 115.65 93.4569 114.337 94.0113C110.393 95.685 109.933 98.8808 113.16 101.548C115.038 103.102 116.989 104.577 118.453 106.543C119.133 107.459 119.677 107.459 120.556 106.789C125.185 103.274 129.74 99.6549 134.908 96.9037C135.567 96.5533 135.87 95.5124 136.299 94.7697C137.8 92.1964 139.443 89.7381 142.147 88.2632C145.065 86.6679 148.784 87.6878 150.05 90.4024C150.343 91.03 150.678 91.7361 150.071 92.3428C149.412 93.0071 148.816 92.4841 148.219 92.1232C144.872 90.0781 143.779 90.2978 141.368 93.504C138.993 96.6579 137.251 100.063 137.026 104.619C139.134 102.312 140.029 99.8484 141.378 97.6726C142.157 96.4173 142.921 95.1568 143.721 93.9172C144.155 93.2425 144.663 92.5991 145.609 92.8502C146.587 93.1117 146.954 93.8806 147.037 94.8063C147.22 96.7939 147.21 98.8233 147.613 100.764C148.502 105.094 151.708 106.271 155.401 103.891C156.797 102.992 156.991 101.831 156.991 100.361C157.022 85.4911 157.095 70.6264 157.163 55.7564C157.169 54.7156 157.148 53.6643 157.242 52.6287C157.618 48.6222 160.197 46.3522 164.193 46.4516C167.875 46.5458 170.574 49.1139 170.438 53.0262C170.234 58.6645 169.669 64.2872 169.209 69.915C168.262 81.5108 167.284 93.1065 166.316 104.718C167.451 104.796 167.425 103.876 167.708 103.348C169.999 99.0586 172.284 94.7645 174.931 90.6796C175.59 89.6597 176.338 88.6973 177.096 87.7454C177.865 86.783 178.948 86.1135 180.01 86.966C181.04 87.7924 179.973 88.6973 179.518 89.4504C178.89 90.4913 178.226 91.5321 177.421 92.4318C173.362 96.9665 173.037 102.15 174.418 107.783C175.7 113.003 176.463 118.369 179.12 123.165C179.539 123.919 179.628 124.63 178.875 125.263C177.996 126.005 177.248 125.582 176.557 125.001C175.386 124.018 174.79 122.663 174.251 121.272C172.384 116.434 171.479 111.324 170.124 105.701C167.195 111.02 164.972 115.927 164.831 121.607C164.747 124.991 164.47 128.38 164.104 131.743C163.947 133.171 164.345 134.003 165.548 134.709C166.667 135.363 167.661 136.231 168.712 137C173.885 140.766 176.406 145.808 176.108 152.241C175.836 158.057 175.402 163.873 175.663 169.7C175.715 170.924 175.119 171.452 174.178 171.808C163.628 175.772 153.267 175.307 143.109 170.427C142.304 170.04 141.666 169.527 141.739 168.445C142.194 161.86 142.487 155.259 143.094 148.69C143.643 142.711 147.215 138.501 152.336 135.98C156.044 134.149 157.08 131.764 156.902 127.847C156.593 120.937 156.818 114.002 156.818 107.051C148.894 109.111 145.625 107.307 144.234 100.157C142.905 100.277 142.79 101.512 142.32 102.333C141.2 104.289 140.248 106.339 138.847 108.133C137.926 109.31 136.781 109.598 135.374 109.221C133.967 108.845 133.417 107.867 133.391 106.522C133.36 104.728 133.386 102.934 133.386 100.868C129.285 103.541 125.457 106.188 121.864 109.19C120.901 109.995 120.797 110.911 121.053 111.983C122.721 118.929 120.232 124.776 116.152 130.148C114.823 131.9 113.061 133.192 110.932 133.893C107.454 135.033 104.828 133.218 104.677 129.567C104.467 124.468 107.297 120.702 110.263 117.03C111.738 115.21 113.359 113.5 115.007 111.831C115.943 110.884 115.875 110.147 115.106 109.153C113.275 106.789 110.723 105.194 108.735 103.002C107.998 102.192 107.606 102.798 107.072 103.274C105.843 104.367 104.63 105.513 103.285 106.454C98.2641 109.964 93.0442 108.191 91.1195 102.375C90.8736 101.637 90.7063 100.874 90.4709 100.016C89.3307 100.34 89.1633 101.47 88.6821 102.286C87.453 104.373 86.5429 106.653 84.864 108.468C83.8963 109.514 82.7561 109.572 81.5217 109.179C80.2926 108.787 79.7173 107.861 79.6754 106.622C79.4453 99.2679 82.1965 93.1954 87.9551 88.6868C90.9103 86.3698 95.0318 87.4472 96.4492 90.4756C96.7421 91.098 97.1292 91.7623 96.444 92.3795C95.7483 93.0019 95.1782 92.4998 94.5872 92.1336C91.3235 90.099 90.2774 90.2507 87.8923 93.3105C85.3922 96.4958 83.6191 100.011 83.9277 104.31ZM117.193 113.4C112.846 117.935 108.908 121.837 107.789 127.611C107.574 128.704 107.213 130.059 108.296 130.755C109.583 131.581 110.66 130.373 111.439 129.604C115.723 125.367 117.549 120.168 117.193 113.4ZM161.248 164.548C161.217 164.548 161.191 164.548 161.159 164.543C161.159 164.804 161.123 165.071 161.165 165.322C161.321 166.206 160.553 167.519 162.373 167.608C164.209 167.697 163.68 166.379 163.727 165.474C164.052 159.056 164.329 152.638 164.627 146.221C164.674 145.232 164.732 144.249 163.293 144.223C161.829 144.197 162.211 145.306 162.169 146.069C161.839 152.231 161.552 158.392 161.248 164.548ZM147.963 157.022C147.848 159.114 147.858 159.051 147.858 160.698C147.858 162.346 147.879 163.988 147.848 165.636C147.838 166.394 147.853 166.985 148.868 167.053C149.93 167.121 150.191 166.624 150.233 165.683C150.547 158.936 150.908 152.183 151.216 145.436C151.253 144.662 151.572 143.653 150.128 143.569C148.669 143.485 148.643 144.359 148.643 145.374C148.648 150.484 148.251 151.791 147.963 157.022ZM157.582 152.968C157.571 152.968 157.556 152.968 157.545 152.968C157.676 150.63 157.817 148.292 157.937 145.949C157.99 144.986 158.126 144.035 156.593 144.066C155.191 144.097 155.411 145.002 155.369 145.844C155.076 152.346 154.799 158.847 154.485 165.348C154.438 166.379 154.339 167.226 155.819 167.236C157.289 167.242 156.949 166.232 156.985 165.453C157.205 161.29 157.388 157.131 157.582 152.968ZM168.299 156.404C168.325 156.404 168.346 156.41 168.372 156.41C168.21 159.527 168.032 162.649 167.901 165.767C167.865 166.656 167.561 167.759 169.151 167.739C170.705 167.712 170.407 166.598 170.443 165.714C170.705 159.302 170.945 152.89 171.175 146.477C171.202 145.687 171.625 144.704 170.156 144.61C168.769 144.521 168.879 145.415 168.832 146.273C168.654 149.647 168.477 153.026 168.299 156.404Z" fill="#9FC817"/>
<path d="M14.7669 6C14.7931 17.2662 13.0566 27.8786 14.5577 38.5224C17.675 28.2081 17.4815 17.376 19.9188 6.96239C19.9188 10.4929 20.013 14.0286 19.8927 17.5539C19.7671 21.1994 19.3016 24.8345 19.2389 28.4749C19.1709 32.0263 18.6322 35.6509 20.2222 39.1396C23.6272 28.773 22.8897 17.7892 25.2904 7.26575C26.1377 17.9148 24.1293 28.5795 25.6984 39.2704C28.7111 29.0136 28.5646 18.2704 30.9706 7.83586C31.0909 9.1173 31.274 10.3935 31.3263 11.6749C31.8336 24.5312 32.116 37.3822 30.1547 50.1704C29.7048 53.1099 28.528 55.8088 26.3574 57.7022C22.4556 61.0967 21.5193 65.4013 21.2578 70.2446C20.3111 87.8918 20.808 105.529 21.4252 123.165C21.4356 123.505 21.399 123.877 22.1051 124.117C23.0361 120.65 23.9671 117.171 24.9086 113.693C27.3773 104.551 30.1494 95.5072 34.5115 87.0497C35.3432 85.4388 36.384 83.922 37.451 82.4522C38.3872 81.1656 39.7315 80.4961 41.3372 80.993C42.8226 81.4533 43.0318 82.8288 43.2149 84.1417C43.9576 89.4452 43.2933 94.7331 42.9115 100.011C42.5611 104.88 42.5245 109.734 42.718 114.598C42.7337 114.938 42.7494 115.294 43.2881 115.503C44.7421 114.363 45.2233 112.59 45.8614 110.937C50.3229 99.362 53.8273 87.4368 58.6968 76.0137C61.5578 69.2979 64.6385 62.6919 68.6135 56.541C69.7956 54.7104 71.0666 52.9478 72.6932 51.478C75.7739 48.7007 78.5878 49.4696 79.6601 53.4603C80.7166 57.3883 80.5597 61.4576 80.0105 65.3803C77.8294 81.0034 75.3136 96.5795 73.075 112.192C71.8093 121.037 71.077 129.949 70.2559 138.846C69.5341 146.718 68.5455 154.558 68.7443 162.487C68.7652 163.361 68.7234 164.417 67.6302 164.559C66.3697 164.726 66.1239 163.617 65.9356 162.67C65.1981 158.931 65.9513 155.212 66.1866 151.498C66.9241 139.704 67.6355 127.904 68.7234 116.141C70.0257 102.045 72.3794 88.0854 74.7226 74.1255C75.7111 68.2152 76.5846 62.2787 76.5114 56.2586C76.5009 55.2596 76.6108 53.884 75.6274 53.5336C74.754 53.225 74.0217 54.3861 73.4307 55.1027C69.8793 59.4282 67.3792 64.3918 64.9366 69.3816C58.9635 81.5579 54.8786 94.4559 50.5426 107.255C49.4285 110.539 48.1942 113.793 46.2851 116.716C45.3959 118.081 44.5434 119.808 42.5872 119.551C40.4375 119.274 40.176 117.229 39.7942 115.587C38.9207 111.831 38.9312 108.018 39.2503 104.179C39.7471 98.2061 40.1551 92.2226 40.5369 86.2443C40.5788 85.5643 40.992 84.4502 40.0034 84.2201C39.1666 84.0266 38.7691 85.0308 38.3559 85.6689C33.9257 92.5312 31.3681 100.194 29.2289 107.971C25.9965 119.74 23.3604 131.67 19.6521 143.313C18.6635 146.42 16.1425 148.726 13.3756 148.7C10.5931 148.674 8.48002 146.718 7.79484 143.109C6.38264 135.666 7.12535 128.181 7.9256 120.759C9.82422 103.232 11.9268 85.7317 15.3946 68.4296C16.0902 64.9671 15.7868 61.5936 13.4489 58.7901C8.98213 53.4342 8.34403 47.3356 9.0449 40.6564C10.1224 30.3683 11.1109 20.0749 13.1664 9.92277C13.3913 8.77209 13.5796 7.59003 14.7669 6Z" fill="#9FC817"/>
<path d="M215.456 95.2719C213.84 96.1453 213.369 97.2803 212.778 98.2898C211.282 100.832 209.88 103.431 208.348 105.952C207.459 107.412 206.517 109.294 204.498 108.902C202.448 108.505 202.537 106.345 202.218 104.76C200.215 106.669 198.264 108.609 196.224 110.45C193.687 112.741 191.004 115.142 187.248 113.876C183.352 112.563 182.175 109.002 181.683 105.414C181.056 100.832 181.296 96.2238 182.766 91.7623C182.902 91.3543 183.069 90.9463 183.268 90.5645C183.796 89.5446 184.57 88.9222 185.789 89.2099C187.196 89.5446 187.128 90.6534 186.966 91.7047C186.427 95.2195 185.559 98.682 185.575 102.275C185.585 104.477 185.946 106.59 186.731 108.635C187.547 110.775 188.99 111.402 191.046 110.304C191.961 109.817 192.929 109.336 193.671 108.641C198.217 104.388 202.94 100.267 204.32 93.708C204.634 92.2173 205.445 90.7947 206.208 89.4452C206.737 88.5038 207.464 87.2642 208.824 87.918C209.985 88.4776 209.666 89.6806 209.373 90.711C208.405 94.1316 207.443 97.5523 206.454 100.968C206.329 101.407 205.659 101.883 206.402 102.233C206.956 102.495 207.338 101.972 207.626 101.522C208.845 99.6235 210.032 97.6987 211.292 95.8263C212.066 94.6756 212.882 93.5406 213.808 92.5155C214.561 91.6786 215.503 90.8836 216.763 91.3491C217.919 91.7727 218.05 92.8711 218.144 93.9381C218.421 97.0502 218.672 100.167 219.012 103.274C219.117 104.211 219.373 105.162 219.729 106.036C220.775 108.604 222.464 108.986 224.562 107.087C226.706 105.142 228.103 102.594 229.818 100.303C230.671 99.1632 231.372 96.6579 233.004 97.7301C234.672 98.8233 232.862 100.685 232.083 101.982C230.467 104.666 228.506 107.119 226.162 109.226C222.574 112.454 218.986 111.669 217.025 107.239C215.916 104.739 215.576 102.077 215.461 99.3777C215.414 98.1695 215.456 96.9613 215.456 95.2719Z" fill="#9FC817"/>
<path d="M190.952 77.0022C190.978 79.1048 190.189 80.2869 188.447 80.3549C186.595 80.4281 185.821 79.0263 185.874 77.452C185.931 75.7417 186.261 73.6809 188.531 73.7175C190.691 73.7541 190.675 75.794 190.952 77.0022Z" fill="#9FC817"/>
</g>
<defs>
<filter id="filter0_d_684_4904" x="0" y="0" width="246.688" height="188.47" filterUnits="userSpaceOnUse" color-interpolation-filters="sRGB">
<feFlood flood-opacity="0" result="BackgroundImageFix"/>
<feColorMatrix in="SourceAlpha" type="matrix" values="0 0 0 0 0 0 0 0 0 0 0 0 0 0 0 0 0 0 127 0" result="hardAlpha"/>
<feOffset dx="3" dy="4"/>
<feGaussianBlur stdDeviation="5"/>
<feComposite in2="hardAlpha" operator="out"/>
<feColorMatrix type="matrix" values="0 0 0 0 0 0 0 0 0 0 0 0 0 0 0 0 0 0 0.7 0"/>
<feBlend mode="normal" in2="BackgroundImageFix" result="effect1_dropShadow_684_4904"/>
<feBlend mode="normal" in="SourceGraphic" in2="effect1_dropShadow_684_4904" result="shape"/>
</filter>
</defs>
</svg>
