<svg width="13" height="13" viewBox="0 0 13 13" fill="none" xmlns="http://www.w3.org/2000/svg">
<rect width="13" height="13" rx="6.5" fill="#097659"/>
<path fill-rule="evenodd" clip-rule="evenodd" d="M6.48995 2.79865C5.91168 2.79865 5.43117 2.81926 5.04137 2.89903C4.64667 2.97981 4.32138 3.12584 4.07699 3.39357C3.83548 3.65814 3.7011 4.01105 3.62408 4.44862C3.5472 4.8854 3.52306 5.4338 3.52306 6.11328C3.52306 6.37534 3.52262 6.6214 3.5222 6.85222L3.5222 6.85269V6.85271C3.52023 7.94495 3.51887 8.69584 3.56812 9.18559C3.5975 9.47779 3.64817 9.72581 3.75958 9.90395C3.81949 9.99975 3.89906 10.0791 4.00238 10.132C4.10385 10.1839 4.21099 10.2014 4.31353 10.2014C4.54781 10.2014 4.77498 10.0725 4.95835 9.94514C5.13736 9.82076 5.32578 9.65973 5.50397 9.50745L5.50398 9.50745L5.54616 9.47142C5.74293 9.30346 5.92775 9.14839 6.10119 9.03452C6.2811 8.91641 6.40756 8.87109 6.48995 8.87109C6.57234 8.87109 6.69881 8.91641 6.87871 9.03452C7.05215 9.14839 7.23697 9.30346 7.43375 9.47142L7.47592 9.50744C7.65411 9.65973 7.84254 9.82076 8.02155 9.94514C8.20492 10.0725 8.43209 10.2014 8.66637 10.2014C8.76892 10.2014 8.87605 10.1839 8.97752 10.132C9.08084 10.0791 9.16041 9.99975 9.22033 9.90395C9.33174 9.72581 9.3824 9.47779 9.41179 9.18559C9.46103 8.69584 9.45968 7.94495 9.4577 6.85271V6.8527V6.85257C9.45729 6.62165 9.45684 6.37547 9.45684 6.11328C9.45684 5.4338 9.4327 4.8854 9.35582 4.44862C9.2788 4.01105 9.14442 3.65814 8.90291 3.39357C8.65852 3.12584 8.33323 2.97981 7.93853 2.89903C7.54873 2.81926 7.06822 2.79865 6.48995 2.79865ZM4.06473 6.11328C4.06473 5.43914 4.0893 4.93025 4.15755 4.54252C4.22566 4.15557 4.33284 3.91673 4.47705 3.75875C4.61837 3.60394 4.82293 3.49663 5.14997 3.4297C5.48191 3.36177 5.91502 3.34031 6.48995 3.34031C7.06489 3.34031 7.49799 3.36177 7.82993 3.4297C8.15697 3.49663 8.36154 3.60394 8.50286 3.75875C8.64706 3.91673 8.75424 4.15557 8.82236 4.54252C8.8906 4.93025 8.91517 5.43914 8.91517 6.11328C8.91517 6.38191 8.9156 6.63211 8.91599 6.8651C8.91785 7.95773 8.91906 8.67175 8.87284 9.13139C8.84435 9.41466 8.80113 9.55269 8.76108 9.61673C8.74526 9.64202 8.73471 9.64777 8.73081 9.64976C8.72507 9.6527 8.7079 9.65976 8.66637 9.65976C8.61266 9.65976 8.50625 9.62234 8.33063 9.50031C8.17494 9.39213 8.00652 9.24828 7.82161 9.09034L7.78541 9.05943C7.59254 8.8948 7.38249 8.71729 7.17599 8.58172C6.97596 8.4504 6.73744 8.32942 6.48995 8.32942C6.24247 8.32942 6.00394 8.4504 5.80391 8.58172C5.59742 8.71729 5.38736 8.8948 5.1945 9.05943L5.1583 9.09034L5.15829 9.09035C4.97338 9.24828 4.80496 9.39213 4.64927 9.50031C4.47365 9.62234 4.36724 9.65976 4.31353 9.65976C4.272 9.65976 4.25483 9.6527 4.24909 9.64976C4.2452 9.64777 4.23464 9.64202 4.21882 9.61673C4.17877 9.55269 4.13555 9.41466 4.10706 9.13139C4.06084 8.67175 4.06206 7.95774 4.06391 6.8651C4.0643 6.63211 4.06473 6.38191 4.06473 6.11328ZM5.25215 5.22448C5.10257 5.22448 4.98131 5.34574 4.98131 5.49531C4.98131 5.64489 5.10257 5.76615 5.25215 5.76615H7.72756C7.87714 5.76615 7.9984 5.64489 7.9984 5.49531C7.9984 5.34574 7.87714 5.22448 7.72756 5.22448H5.25215Z" fill="#1FF6BD"/>
</svg>
