<svg width="24" height="24" viewBox="0 0 24 24" fill="none" xmlns="http://www.w3.org/2000/svg">
<path d="M20.4699 6.20554L20.4701 6.20564C21.1412 6.67545 21.706 7.3863 22.1023 8.14547C22.4987 8.90465 22.76 9.77616 22.76 10.6001V17.3801C22.76 20.3443 20.3542 22.7501 17.39 22.7501H6.60999C3.64367 22.7501 1.23999 20.3322 1.23999 17.3701V10.4701C1.23999 9.69672 1.47816 8.86783 1.83713 8.13877C2.19627 7.40935 2.7083 6.71486 3.31855 6.23881C3.31861 6.23877 3.31866 6.23872 3.31872 6.23868L8.32856 2.32881L8.33062 2.3272L8.33062 2.3272C10.1003 0.955981 12.8707 0.887194 14.7099 2.17554L20.4699 6.20554ZM20.4699 6.20554L14.7103 2.17582L20.4699 6.20554Z" stroke="#7E9F10" stroke-width="1.5"/>
</svg>
