<svg width="7" height="7" viewBox="0 0 7 7" fill="none" xmlns="http://www.w3.org/2000/svg">
<path d="M3.50033 6.63542C1.97199 6.63542 0.729492 5.39292 0.729492 3.86458C0.729492 2.33625 1.97199 1.09375 3.50033 1.09375C5.02866 1.09375 6.27116 2.33625 6.27116 3.86458C6.27116 5.39292 5.02866 6.63542 3.50033 6.63542ZM3.50033 1.53125C2.21408 1.53125 1.16699 2.57833 1.16699 3.86458C1.16699 5.15083 2.21408 6.19792 3.50033 6.19792C4.78658 6.19792 5.83366 5.15083 5.83366 3.86458C5.83366 2.57833 4.78658 1.53125 3.50033 1.53125Z" fill="#097659"/>
<path d="M3.5 4.0104C3.38042 4.0104 3.28125 3.91123 3.28125 3.79165V2.33331C3.28125 2.21373 3.38042 2.11456 3.5 2.11456C3.61958 2.11456 3.71875 2.21373 3.71875 2.33331V3.79165C3.71875 3.91123 3.61958 4.0104 3.5 4.0104Z" fill="#097659"/>
<path d="M4.375 0.802063H2.625C2.50542 0.802063 2.40625 0.702896 2.40625 0.583313C2.40625 0.46373 2.50542 0.364563 2.625 0.364563H4.375C4.49458 0.364563 4.59375 0.46373 4.59375 0.583313C4.59375 0.702896 4.49458 0.802063 4.375 0.802063Z" fill="#097659"/>
</svg>
